<?xml version="1.0" encoding="utf-8"?>
<!-- Generator: Adobe Illustrator 26.0.2, SVG Export Plug-In . SVG Version: 6.00 Build 0)  -->
<svg version="1.1" id="Layer_1" xmlns="http://www.w3.org/2000/svg" xmlns:xlink="http://www.w3.org/1999/xlink" x="0px" y="0px"
	 viewBox="0 0 35.1 35.1" style="enable-background:new 0 0 35.1 35.1;" xml:space="preserve">
<style type="text/css">
	.st0{fill:#0D6EFD;}
	.st1{fill:#FFFFFF;stroke:#FFFFFF;stroke-miterlimit:10;}
</style>
<g>
	<path class="st0" d="M27,35.1H8.1C3.6,35.1,0,31.5,0,27V8.1C0,3.6,3.6,0,8.1,0H27c4.5,0,8.1,3.6,8.1,8.1V27
		C35.1,31.5,31.5,35.1,27,35.1z"/>
	<path class="st1" d="M7.6,28.7L28.7,7.6c0.3-0.3,0.3-0.8,0-1.2c-0.3-0.3-0.8-0.3-1.2,0L6.4,27.5c-0.3,0.3-0.3,0.8,0,1.2
		S7.3,29,7.6,28.7L7.6,28.7 M11.1,6.2c0.4,0,0.8,0.4,0.8,0.8v3.3h3.2c0.4,0,0.8,0.4,0.8,0.8s-0.4,0.8-0.8,0.8h-3.2v3.2
		c0,0.4-0.4,0.8-0.8,0.8s-0.8-0.4-0.8-0.8v-3.2H7c-0.4,0-0.8-0.4-0.8-0.8s0.4-0.8,0.8-0.8h3.2V7C10.2,6.5,10.6,6.2,11.1,6.2
		 M19.2,24.1c0-0.4,0.4-0.8,0.8-0.8h8.1c0.4,0,0.8,0.4,0.8,0.8c0,0.4-0.4,0.8-0.8,0.8H20C19.5,24.9,19.2,24.5,19.2,24.1"/>
</g>
</svg>
